<svg width="1256" height="390" viewBox="0 0 1256 390" fill="none" xmlns="http://www.w3.org/2000/svg">
<circle cx="1058.5" cy="387.5" r="2.5" fill="#952727"/>
<circle cx="1122.5" cy="387.5" r="2.5" fill="#952727"/>
<circle cx="1186.5" cy="387.5" r="2.5" fill="#952727"/>
<circle cx="1251.5" cy="387.5" r="2.5" fill="#952727"/>
<circle cx="1058.5" cy="345.5" r="2.5" fill="#952727"/>
<circle cx="1122.5" cy="345.5" r="2.5" fill="#952727"/>
<circle cx="1186.5" cy="345.5" r="2.5" fill="#952727"/>
<circle cx="1251.5" cy="345.5" r="2.5" fill="#952727"/>
<circle cx="1058.5" cy="303.5" r="2.5" fill="#952727"/>
<circle cx="1122.5" cy="303.5" r="2.5" fill="#952727"/>
<circle cx="1186.5" cy="303.5" r="2.5" fill="#952727"/>
<circle cx="1251.5" cy="303.5" r="2.5" fill="#952727"/>
<circle cx="1058.5" cy="261.5" r="2.5" fill="#952727"/>
<circle cx="1122.5" cy="261.5" r="2.5" fill="#952727"/>
<circle cx="1186.5" cy="261.5" r="2.5" fill="#952727"/>
<circle cx="1251.5" cy="261.5" r="2.5" fill="#952727"/>
<circle cx="1058.5" cy="219.5" r="2.5" fill="#952727"/>
<circle cx="1122.5" cy="219.5" r="2.5" fill="#952727"/>
<circle cx="1186.5" cy="219.5" r="2.5" fill="#952727"/>
<circle cx="1251.5" cy="219.5" r="2.5" fill="#952727"/>
<circle cx="1060.5" cy="170.5" r="2.5" fill="#952727"/>
<circle cx="1124.5" cy="170.5" r="2.5" fill="#952727"/>
<circle cx="1188.5" cy="170.5" r="2.5" fill="#952727"/>
<circle cx="1253.5" cy="170.5" r="2.5" fill="#952727"/>
<circle cx="1060.5" cy="128.5" r="2.5" fill="#952727"/>
<circle cx="1124.5" cy="128.5" r="2.5" fill="#952727"/>
<circle cx="1188.5" cy="128.5" r="2.5" fill="#952727"/>
<circle cx="1253.5" cy="128.5" r="2.5" fill="#952727"/>
<circle cx="1060.5" cy="86.5" r="2.5" fill="#952727"/>
<circle cx="1124.5" cy="86.5" r="2.5" fill="#952727"/>
<circle cx="1188.5" cy="86.5" r="2.5" fill="#952727"/>
<circle cx="1253.5" cy="86.5" r="2.5" fill="#952727"/>
<circle cx="1060.5" cy="44.5" r="2.5" fill="#952727"/>
<circle cx="1124.5" cy="44.5" r="2.5" fill="#952727"/>
<circle cx="1188.5" cy="44.5" r="2.5" fill="#952727"/>
<circle cx="1253.5" cy="44.5" r="2.5" fill="#952727"/>
<circle cx="1060.5" cy="2.5" r="2.5" fill="#952727"/>
<circle cx="1124.5" cy="2.5" r="2.5" fill="#952727"/>
<circle cx="1188.5" cy="2.5" r="2.5" fill="#952727"/>
<circle cx="1253.5" cy="2.5" r="2.5" fill="#952727"/>
<circle cx="794.5" cy="387.5" r="2.5" fill="#952727"/>
<circle cx="858.5" cy="387.5" r="2.5" fill="#952727"/>
<circle cx="922.5" cy="387.5" r="2.5" fill="#952727"/>
<circle cx="987.5" cy="387.5" r="2.5" fill="#952727"/>
<circle cx="794.5" cy="345.5" r="2.5" fill="#952727"/>
<circle cx="858.5" cy="345.5" r="2.5" fill="#952727"/>
<circle cx="922.5" cy="345.5" r="2.5" fill="#952727"/>
<circle cx="987.5" cy="345.5" r="2.5" fill="#952727"/>
<circle cx="794.5" cy="303.5" r="2.5" fill="#952727"/>
<circle cx="858.5" cy="303.5" r="2.5" fill="#952727"/>
<circle cx="922.5" cy="303.5" r="2.5" fill="#952727"/>
<circle cx="987.5" cy="303.5" r="2.5" fill="#952727"/>
<circle cx="794.5" cy="261.5" r="2.5" fill="#952727"/>
<circle cx="858.5" cy="261.5" r="2.5" fill="#952727"/>
<circle cx="922.5" cy="261.5" r="2.5" fill="#952727"/>
<circle cx="987.5" cy="261.5" r="2.5" fill="#952727"/>
<circle cx="794.5" cy="219.5" r="2.5" fill="#952727"/>
<circle cx="858.5" cy="219.5" r="2.5" fill="#952727"/>
<circle cx="922.5" cy="219.5" r="2.5" fill="#952727"/>
<circle cx="987.5" cy="219.5" r="2.5" fill="#952727"/>
<circle cx="796.5" cy="170.5" r="2.5" fill="#952727"/>
<circle cx="860.5" cy="170.5" r="2.5" fill="#952727"/>
<circle cx="924.5" cy="170.5" r="2.5" fill="#952727"/>
<circle cx="989.5" cy="170.5" r="2.5" fill="#952727"/>
<circle cx="796.5" cy="128.5" r="2.5" fill="#952727"/>
<circle cx="860.5" cy="128.5" r="2.5" fill="#952727"/>
<circle cx="924.5" cy="128.5" r="2.5" fill="#952727"/>
<circle cx="989.5" cy="128.5" r="2.5" fill="#952727"/>
<circle cx="796.5" cy="86.5" r="2.5" fill="#952727"/>
<circle cx="860.5" cy="86.5" r="2.5" fill="#952727"/>
<circle cx="924.5" cy="86.5" r="2.5" fill="#952727"/>
<circle cx="989.5" cy="86.5" r="2.5" fill="#952727"/>
<circle cx="796.5" cy="44.5" r="2.5" fill="#952727"/>
<circle cx="860.5" cy="44.5" r="2.5" fill="#952727"/>
<circle cx="924.5" cy="44.5" r="2.5" fill="#952727"/>
<circle cx="989.5" cy="44.5" r="2.5" fill="#952727"/>
<circle cx="796.5" cy="2.5" r="2.5" fill="#952727"/>
<circle cx="860.5" cy="2.5" r="2.5" fill="#952727"/>
<circle cx="924.5" cy="2.5" r="2.5" fill="#952727"/>
<circle cx="989.5" cy="2.5" r="2.5" fill="#952727"/>
<circle cx="530.5" cy="387.5" r="2.5" fill="#952727"/>
<circle cx="594.5" cy="387.5" r="2.5" fill="#952727"/>
<circle cx="658.5" cy="387.5" r="2.5" fill="#952727"/>
<circle cx="723.5" cy="387.5" r="2.5" fill="#952727"/>
<circle cx="530.5" cy="345.5" r="2.5" fill="#952727"/>
<circle cx="594.5" cy="345.5" r="2.5" fill="#952727"/>
<circle cx="658.5" cy="345.5" r="2.5" fill="#952727"/>
<circle cx="723.5" cy="345.5" r="2.5" fill="#952727"/>
<circle cx="530.5" cy="303.5" r="2.5" fill="#952727"/>
<circle cx="594.5" cy="303.5" r="2.5" fill="#952727"/>
<circle cx="658.5" cy="303.5" r="2.5" fill="#952727"/>
<circle cx="723.5" cy="303.5" r="2.5" fill="#952727"/>
<circle cx="530.5" cy="261.5" r="2.5" fill="#952727"/>
<circle cx="594.5" cy="261.5" r="2.5" fill="#952727"/>
<circle cx="658.5" cy="261.5" r="2.5" fill="#952727"/>
<circle cx="723.5" cy="261.5" r="2.5" fill="#952727"/>
<circle cx="530.5" cy="219.5" r="2.5" fill="#952727"/>
<circle cx="594.5" cy="219.5" r="2.5" fill="#952727"/>
<circle cx="658.5" cy="219.5" r="2.5" fill="#952727"/>
<circle cx="723.5" cy="219.5" r="2.5" fill="#952727"/>
<circle cx="532.5" cy="170.5" r="2.5" fill="#952727"/>
<circle cx="596.5" cy="170.5" r="2.5" fill="#952727"/>
<circle cx="660.5" cy="170.5" r="2.5" fill="#952727"/>
<circle cx="725.5" cy="170.5" r="2.5" fill="#952727"/>
<circle cx="532.5" cy="128.5" r="2.5" fill="#952727"/>
<circle cx="596.5" cy="128.5" r="2.5" fill="#952727"/>
<circle cx="660.5" cy="128.5" r="2.5" fill="#952727"/>
<circle cx="725.5" cy="128.5" r="2.5" fill="#952727"/>
<circle cx="532.5" cy="86.5" r="2.5" fill="#952727"/>
<circle cx="596.5" cy="86.5" r="2.5" fill="#952727"/>
<circle cx="660.5" cy="86.5" r="2.5" fill="#952727"/>
<circle cx="725.5" cy="86.5" r="2.5" fill="#952727"/>
<circle cx="532.5" cy="44.5" r="2.5" fill="#952727"/>
<circle cx="596.5" cy="44.5" r="2.5" fill="#952727"/>
<circle cx="660.5" cy="44.5" r="2.5" fill="#952727"/>
<circle cx="725.5" cy="44.5" r="2.5" fill="#952727"/>
<circle cx="532.5" cy="2.5" r="2.5" fill="#952727"/>
<circle cx="596.5" cy="2.5" r="2.5" fill="#952727"/>
<circle cx="660.5" cy="2.5" r="2.5" fill="#952727"/>
<circle cx="725.5" cy="2.5" r="2.5" fill="#952727"/>
<circle cx="266.5" cy="387.5" r="2.5" fill="#952727"/>
<circle cx="330.5" cy="387.5" r="2.5" fill="#952727"/>
<circle cx="394.5" cy="387.5" r="2.5" fill="#952727"/>
<circle cx="459.5" cy="387.5" r="2.5" fill="#952727"/>
<circle cx="266.5" cy="345.5" r="2.5" fill="#952727"/>
<circle cx="330.5" cy="345.5" r="2.5" fill="#952727"/>
<circle cx="394.5" cy="345.5" r="2.5" fill="#952727"/>
<circle cx="459.5" cy="345.5" r="2.5" fill="#952727"/>
<circle cx="266.5" cy="303.5" r="2.5" fill="#952727"/>
<circle cx="330.5" cy="303.5" r="2.5" fill="#952727"/>
<circle cx="394.5" cy="303.5" r="2.5" fill="#952727"/>
<circle cx="459.5" cy="303.5" r="2.5" fill="#952727"/>
<circle cx="266.5" cy="261.5" r="2.5" fill="#952727"/>
<circle cx="330.5" cy="261.5" r="2.5" fill="#952727"/>
<circle cx="394.5" cy="261.5" r="2.5" fill="#952727"/>
<circle cx="459.5" cy="261.5" r="2.5" fill="#952727"/>
<circle cx="266.5" cy="219.5" r="2.5" fill="#952727"/>
<circle cx="330.5" cy="219.5" r="2.5" fill="#952727"/>
<circle cx="394.5" cy="219.5" r="2.5" fill="#952727"/>
<circle cx="459.5" cy="219.5" r="2.5" fill="#952727"/>
<circle cx="268.5" cy="170.5" r="2.5" fill="#952727"/>
<circle cx="332.5" cy="170.5" r="2.5" fill="#952727"/>
<circle cx="396.5" cy="170.5" r="2.5" fill="#952727"/>
<circle cx="461.5" cy="170.5" r="2.5" fill="#952727"/>
<circle cx="268.5" cy="128.5" r="2.5" fill="#952727"/>
<circle cx="332.5" cy="128.5" r="2.5" fill="#952727"/>
<circle cx="396.5" cy="128.5" r="2.5" fill="#952727"/>
<circle cx="461.5" cy="128.5" r="2.5" fill="#952727"/>
<circle cx="268.5" cy="86.5" r="2.5" fill="#952727"/>
<circle cx="332.5" cy="86.5" r="2.5" fill="#952727"/>
<circle cx="396.5" cy="86.5" r="2.5" fill="#952727"/>
<circle cx="461.5" cy="86.5" r="2.5" fill="#952727"/>
<circle cx="268.5" cy="44.5" r="2.5" fill="#952727"/>
<circle cx="332.5" cy="44.5" r="2.5" fill="#952727"/>
<circle cx="396.5" cy="44.5" r="2.5" fill="#952727"/>
<circle cx="461.5" cy="44.5" r="2.5" fill="#952727"/>
<circle cx="268.5" cy="2.5" r="2.5" fill="#952727"/>
<circle cx="332.5" cy="2.5" r="2.5" fill="#952727"/>
<circle cx="396.5" cy="2.5" r="2.5" fill="#952727"/>
<circle cx="461.5" cy="2.5" r="2.5" fill="#952727"/>
<circle cx="2.5" cy="387.5" r="2.5" fill="#952727"/>
<circle cx="66.5" cy="387.5" r="2.5" fill="#952727"/>
<circle cx="130.5" cy="387.5" r="2.5" fill="#952727"/>
<circle cx="195.5" cy="387.5" r="2.5" fill="#952727"/>
<circle cx="2.5" cy="345.5" r="2.5" fill="#952727"/>
<circle cx="66.5" cy="345.5" r="2.5" fill="#952727"/>
<circle cx="130.5" cy="345.5" r="2.5" fill="#952727"/>
<circle cx="195.5" cy="345.5" r="2.5" fill="#952727"/>
<circle cx="2.5" cy="303.5" r="2.5" fill="#952727"/>
<circle cx="66.5" cy="303.5" r="2.5" fill="#952727"/>
<circle cx="130.5" cy="303.5" r="2.5" fill="#952727"/>
<circle cx="195.5" cy="303.5" r="2.5" fill="#952727"/>
<circle cx="2.5" cy="261.5" r="2.5" fill="#952727"/>
<circle cx="66.5" cy="261.5" r="2.5" fill="#952727"/>
<circle cx="130.5" cy="261.5" r="2.5" fill="#952727"/>
<circle cx="195.5" cy="261.5" r="2.5" fill="#952727"/>
<circle cx="2.5" cy="219.5" r="2.5" fill="#952727"/>
<circle cx="66.5" cy="219.5" r="2.5" fill="#952727"/>
<circle cx="130.5" cy="219.5" r="2.5" fill="#952727"/>
<circle cx="195.5" cy="219.5" r="2.5" fill="#952727"/>
<circle cx="4.5" cy="170.5" r="2.5" fill="#952727"/>
<circle cx="68.5" cy="170.5" r="2.5" fill="#952727"/>
<circle cx="132.5" cy="170.5" r="2.5" fill="#952727"/>
<circle cx="197.5" cy="170.5" r="2.5" fill="#952727"/>
<circle cx="4.5" cy="128.5" r="2.5" fill="#952727"/>
<circle cx="68.5" cy="128.5" r="2.5" fill="#952727"/>
<circle cx="132.5" cy="128.5" r="2.5" fill="#952727"/>
<circle cx="197.5" cy="128.5" r="2.5" fill="#952727"/>
<circle cx="4.5" cy="86.5" r="2.5" fill="#952727"/>
<circle cx="68.5" cy="86.5" r="2.5" fill="#952727"/>
<circle cx="132.5" cy="86.5" r="2.5" fill="#952727"/>
<circle cx="197.5" cy="86.5" r="2.5" fill="#952727"/>
<circle cx="4.5" cy="44.5" r="2.5" fill="#952727"/>
<circle cx="68.5" cy="44.5" r="2.5" fill="#952727"/>
<circle cx="132.5" cy="44.5" r="2.5" fill="#952727"/>
<circle cx="197.5" cy="44.5" r="2.5" fill="#952727"/>
<circle cx="4.5" cy="2.5" r="2.5" fill="#952727"/>
<circle cx="68.5" cy="2.5" r="2.5" fill="#952727"/>
<circle cx="132.5" cy="2.5" r="2.5" fill="#952727"/>
<circle cx="197.5" cy="2.5" r="2.5" fill="#952727"/>
</svg>
