<svg width="188" height="436" viewBox="0 0 188 436" fill="none" xmlns="http://www.w3.org/2000/svg">
<path d="M1 116.533C1 21.7325 125.333 0.0325199 187.5 1.03252V235.032C125.333 235.032 1 211.333 1 116.533Z" stroke="#C3C3C3"/>
<path d="M1 156.533C1 61.7325 125.333 40.0325 187.5 41.0325V275.032C125.333 275.032 1 251.333 1 156.533Z" stroke="#C3C3C3"/>
<path d="M1 196.533C1 101.733 125.333 80.0325 187.5 81.0325V315.032C125.333 315.032 1 291.333 1 196.533Z" stroke="#C3C3C3"/>
<path d="M1 236.533C1 141.733 125.333 120.033 187.5 121.033V355.032C125.333 355.032 1 331.333 1 236.533Z" stroke="#C3C3C3"/>
<path d="M1 276.533C1 181.733 125.333 160.033 187.5 161.033V395.032C125.333 395.032 1 371.333 1 276.533Z" stroke="#C3C3C3"/>
<path d="M1 316.533C1 221.733 125.333 200.033 187.5 201.033V435.032C125.333 435.032 1 411.333 1 316.533Z" stroke="#C3C3C3"/>
</svg>
